<?xml version="1.0" encoding="UTF-8" standalone="no"?>
<svg
   viewBox="0 0 4252.52 1276.59"
   version="1.1"
   id="svg21"
   sodipodi:docname="SEVEN_Logo_quer_white_transparent.svg"
   inkscape:version="1.4.3 (0d15f750, 2025-12-25)"
   inkscape:export-filename="LogoNeu_3.pdf"
   inkscape:export-xdpi="300"
   inkscape:export-ydpi="300"
   xmlns:inkscape="http://www.inkscape.org/namespaces/inkscape"
   xmlns:sodipodi="http://sodipodi.sourceforge.net/DTD/sodipodi-0.dtd"
   xmlns="http://www.w3.org/2000/svg"
   xmlns:svg="http://www.w3.org/2000/svg">
  <sodipodi:namedview
     id="namedview21"
     pagecolor="#ffffff"
     bordercolor="#000000"
     borderopacity="0.25"
     inkscape:showpageshadow="2"
     inkscape:pageopacity="0.0"
     inkscape:pagecheckerboard="0"
     inkscape:deskcolor="#d1d1d1"
     inkscape:zoom="0.1070233"
     inkscape:cx="1798.6737"
     inkscape:cy="1303.4544"
     inkscape:window-width="1194"
     inkscape:window-height="706"
     inkscape:window-x="0"
     inkscape:window-y="25"
     inkscape:window-maximized="0"
     inkscape:current-layer="svg21"
     inkscape:export-bgcolor="#ffffff00" />
  <defs
     id="defs2">
    <style
       id="style1">
      .cls-1 {
        fill: none;
      }

      .cls-2 {
        fill: #010101;
      }

      .cls-3, .cls-4 {
        stroke: #1d1d1b;
        stroke-miterlimit: 10;
      }

      .cls-5 {
        clip-path: url(#clippath-1);
      }

      .cls-6, .cls-4 {
        fill: #fff;
      }

      .cls-7 {
        clip-path: url(#clippath);
      }
    </style>
    <clipPath
       id="clippath">
      <rect
         class="cls-1"
         x="281.63"
         y="83.19"
         width="1074.23"
         height="1074.23"
         id="rect1" />
    </clipPath>
    <clipPath
       id="clippath-1">
      <rect
         class="cls-1"
         x="1454.4"
         y="340.24"
         width="2338.56"
         height="560.12"
         id="rect2" />
    </clipPath>
  </defs>
  <g
     id="g22"
     inkscape:label="Logo quer"
     style="fill:#ffffff;fill-opacity:1">
    <g
       id="Ebene-1-2"
       data-name="Ebene-1"
       inkscape:label="SEVEN"
       style="fill:#ffffff;fill-opacity:1">
      <path
         class="cls-6"
         d="M3677.9,657.59v-299.48h110.77c5.6,173.58,4.1,347.33,4.1,521.01-38.29,0-79.62,14.98-114.87,0-44.33-18.84-54.57-79.39-82.04-118.97-35.25-50.81-70.72-101.47-106.67-151.79-18.11-25.37-20.51-28.72-24.61-28.72,31.57,94.71,4.1,199.64,4.1,299.48h-114.87c-1.8-172.31-2.47-344.68-8.2-516.9,27.23-2.72,108.9-12.26,123.07-4.1,27.28,15.71,35.24,52.19,53.33,77.95,51.92,73.87,103.82,147.76,155.88,221.53Z"
         id="path17"
         inkscape:label="N"
         style="fill:#ffffff;fill-opacity:1" />
      <path
         class="cls-6"
         d="M2918.96,358.11h311.78q2.06,55.38,4.1,110.77h-196.91v98.46h172.3v98.46c-58.67,4.19-117.59,4.1-176.41,4.1q2.04,51.28,4.1,102.56c67.01,0,134.33-2.57,201.01,4.1v102.56h-319.99V358.11Z"
         id="path20"
         inkscape:label="E"
         style="fill:#ffffff;fill-opacity:1" />
      <path
         class="cls-6"
         d="M2356.93,362.21c42.39,0,88.86-18.15,127.18,0,23.87,11.31,20.18,48.85,28.72,73.84,31.17,91.29,56.31,184.36,90.25,274.86,45.74-91.47,73.11-211.21,106.66-307.68,4.84-13.91,2.31-36.75,16.41-41.02,37.95-11.5,79.31,0,118.97,0-57.72,173.17-125.15,342.91-180.51,516.9-41.02,0-86.77,19.11-123.07,0-26.07-13.72-22.48-54.47-32.82-82.05-38.89-103.7-78.37-207.21-114.87-311.78-14.12-40.44-24.61-82.05-36.92-123.07Z"
         id="path21"
         inkscape:label="V"
         style="fill:#ffffff;fill-opacity:1" />
      <path
         class="cls-6"
         d="M1950.79,362.21h328.19v110.77h-201.02c5.4,32.4,4.1,65.61,4.1,98.46h168.2v94.36c-57.34,3.58-114.85,4.1-172.3,4.1v106.66h209.22v106.66h-332.3q-2.05-260.5-4.1-521.01Z"
         id="path19"
         inkscape:label="E"
         style="fill:#ffffff;fill-opacity:1" />
      <path
         class="cls-6"
         d="M1618.5,341.7c90.06-7.56,157.1,13.51,225.63,82.05,3.87,3.87,3.33,12.07,0,16.41-5.14,6.68-79.95,70.95-86.15,73.84-17.75,8.28-49.91-49.11-73.84-53.33-24.38-4.3-70.26-3.04-73.84,32.82-6.58,65.83,100.01,73.09,139.48,90.25,70.07,30.46,118.17,86.43,106.66,164.1-33.15,223.79-280.49,163.78-402.04,57.43,12.97-25.95,38.88-43.41,61.54-61.54,47.52-38.02,58.46,8.63,106.66,28.72,32.14,13.39,102.28,15.38,106.66-32.82,6.04-66.38-103.98-76.93-143.58-94.35-89.26-39.28-138.89-134.54-86.15-225.63,7.28-12.58,57.43-67.58,118.97-77.95Z"
         id="path18"
         inkscape:label="S"
         style="fill:#ffffff;fill-opacity:1" />
    </g>
    <g
       id="g15"
       style="display:inline;fill:#ffffff;fill-opacity:1"
       inkscape:label="Record">
      <path
         class="cls-6"
         d="m 968.08,165.39 c 103.69,-11.14 208.6,-1.99 312.87,0 8.36,0.16 19.96,17.47 21.47,24.54 6.71,31.33 -32.06,79.08 -46.01,104.29 -22.94,41.45 -45.94,82.85 -69.01,124.23 -53.28,95.53 -116.97,188.04 -164.1,286.79 -4.97,10.41 14.38,12.17 6.13,24.54 -21.5,32.26 -57.09,68.91 -87.42,92.02 -10.04,7.65 -24.07,-7.99 -35.27,-13.8 -11.85,-6.15 -23.84,-17.58 -19.94,-32.21 5.88,-22.04 39.29,-48.48 53.68,-65.95 8.78,-10.66 17.01,-21.78 26.07,-32.21 6.5,-7.48 14.45,-3.38 19.94,-13.8 23.31,-44.29 42.89,-91.35 64.41,-136.49 37,-77.6 80.67,-154.39 115.02,-233.11 5.19,-11.89 -8.04,-35.06 -21.47,-35.27 -62.87,-1 -125.83,1.41 -188.64,-1.53 -26.39,-1.24 -5.38,-90.12 12.27,-92.02 z"
         id="path6"
         inkscape:label="7"
         style="fill:#ffffff;fill-opacity:1" />
      <path
         class="cls-6"
         d="m 928.21,174.59 c -5.88,21.55 -2.76,11.34 -9.2,30.67 -89.47,-14.91 -178.18,-13.1 -263.79,19.94 -52.99,20.45 -102.12,50.73 -144.16,88.95 -239.29,217.54 -163.84,600.04 121.16,734.62 219.71,103.75 494.25,-6.99 593.52,-223.91 44.55,-97.35 52.38,-213.12 23,-315.93 -7.78,-27.21 -21.36,-52.54 -29.14,-79.75 -3.27,-11.43 8.6,-22.41 15.34,-32.21 0.58,-0.84 2.54,-0.87 3.07,0 31.24,51.32 51.51,113.77 58.28,173.3 38.28,336.84 -258.31,617.19 -593.52,538.31 C 393.96,1035.92 235.68,666.45 400.64,393.9 513.84,206.87 719.45,138.28 928.22,174.59 Z"
         id="path5"
         style="display:inline;fill:#ffffff;fill-opacity:1"
         inkscape:label="outer" />
      <path
         class="cls-6"
         d="m 1182.8,482.86 c 13.06,0 14.95,21.67 19.94,33.74 4.94,11.95 8.95,24.31 12.27,36.81 18.01,67.89 14.68,143.2 -6.13,210.11 -59.17,190.19 -258.73,316.12 -455.49,285.26 -56.2,-8.82 -107.94,-32.82 -156.43,-61.35 9.43,-4.71 19.58,7.82 29.14,12.27 13.09,6.09 26.29,12 39.88,16.87 55.53,19.91 111.56,24.78 170.23,21.47 200.16,-11.28 363.55,-193.47 374.21,-388.01 1.55,-28.2 2.07,-64.43 -4.6,-93.55 -5.76,-25.16 -17.99,-48.55 -23,-73.61 z"
         id="path7"
         style="fill:#ffffff;fill-opacity:1"
         inkscape:label="4th bottom" />
      <path
         class="cls-6"
         d="m 903.67,252.81 c -12.41,3.1 -25.56,-1.15 -38.34,-1.53 -23.5,-0.7 -47.06,-1.24 -70.55,0 -22.54,1.19 -56.94,7.53 -79.75,13.8 -182.46,50.18 -302.43,221.01 -292.93,407.95 3.06,60.15 24.6,123.28 55.21,174.84 6.06,10.21 27.4,35.69 24.54,41.41 -199.46,-243.78 -67.74,-602.47 245.38,-647.2 52.2,-7.46 105.72,-3.09 156.43,10.74 z"
         id="path8"
         style="fill:#ffffff;fill-opacity:1"
         inkscape:label="4th top" />
      <path
         class="cls-6"
         d="m 1144.45,551.87 c 9.55,0 19.73,53.43 19.94,62.88 1.74,80.18 -10.55,153.86 -56.75,220.85 -110.21,159.81 -293.03,203.03 -463.16,113.49 9.26,-4.63 19.51,6.93 29.14,10.73 10.53,4.16 21.25,7.89 32.21,10.74 50.78,13.2 102.96,17.47 154.9,7.67 132.7,-25.04 259.04,-136.15 286.79,-271.46 6.23,-30.39 9.79,-62.47 7.67,-93.55 -1.45,-21.23 -10.73,-40.67 -10.73,-61.35 z"
         id="path11"
         style="fill:#ffffff;fill-opacity:1"
         inkscape:label="3rd bottom" />
      <path
         class="cls-6"
         d="m 965.02,335.63 c -1.02,0.51 -1.97,1.87 -3.07,1.53 -22.58,-6.87 -44.4,-16.52 -67.48,-21.47 -58.01,-12.43 -119.51,-8.4 -176.37,7.67 -162.44,45.91 -261.26,217.37 -236.18,380.35 10.62,69.02 49.28,128.54 95.09,179.44 -14.62,0 -58.14,-62.34 -65.95,-75.15 C 471.11,742.47 453.72,662.01 463.52,585.62 494.28,345.66 755.07,230.66 965.02,335.64 Z"
         id="path9"
         style="display:inline;fill:#ffffff;fill-opacity:1"
         inkscape:label="3rd top" />
      <path
         class="cls-6"
         d="m 1101.51,633.15 h 3.07 c 0,180.63 -139.13,313.74 -320.53,303.66 -43.23,-2.4 -82.19,-21.71 -119.62,-41.41 q 3.07,-0.77 6.13,-1.53 v 3.07 c 51.16,17.05 91.97,32.27 147.23,29.14 157.83,-8.93 276.36,-138.26 283.72,-292.93 z"
         id="path14"
         style="fill:#ffffff;fill-opacity:1"
         inkscape:label="2nd bottom" />
      <path
         class="cls-6"
         d="M 932.81,387.77 C 851.68,371.54 804.75,358.58 721.17,384.7 588.8,426.06 511.93,577.37 541.73,709.83 c 12.99,57.73 48.61,99.15 85.88,142.63 -64.4,-32.2 -97.6,-121.36 -105.82,-187.11 -20.96,-167.71 108.54,-302.46 271.46,-312.86 36.32,-2.32 114.15,9.86 139.56,35.27 z"
         id="path10"
         style="display:inline;fill:#ffffff;fill-opacity:1"
         inkscape:label="2nd top" />
      <path
         class="cls-6"
         d="m 713.5,855.53 c 39.24,11.77 69.76,14.49 111.96,12.27 8.12,-0.43 72.08,-19.66 72.08,-4.6 -47.52,15.84 -96.14,24.18 -145.7,9.2 -13.36,-4.04 -32.1,-4.38 -38.34,-16.87 z"
         id="path15"
         style="display:inline;fill:#ffffff;fill-opacity:1"
         inkscape:label="inner bottom" />
      <path
         class="cls-6"
         d="M 911.34,444.51 C 742.12,388.1 582.65,489.5 595.41,674.56 c 2.28,33.02 17.74,72.14 38.34,98.15 6.3,7.96 15.4,13.93 19.94,23 -51.78,-25.89 -71.37,-101.7 -75.15,-153.36 -9.41,-128.61 108.12,-241.43 236.18,-231.58 30.58,2.35 74.25,11.37 96.62,33.74 z"
         id="path12"
         style="display:inline;fill:#ffffff;fill-opacity:1"
         inkscape:label="inner top" />
      <path
         class="cls-6"
         d="m 785.6,484.38 c -79.05,28.21 -131.35,74.67 -136.51,136.51 -9.94,119.35 87.61,206.52 205.52,170.24 -5.14,-41.13 57.63,-95.23 84.35,-127.3 5.57,-6.69 10.53,-13.98 16.85,-19.96 3.5,-3.32 10.34,-3.23 12.29,-7.64 5.17,-11.63 -7.32,-48.58 -9.21,-53.7 -27.26,-74 -101.85,-98.15 -173.29,-98.15 z m 27.24,116.28 c 48.83,3.63 50.66,79.24 0.36,83.1 -57.19,4.4 -66.53,-76.12 -10.75,-82.81 3.67,-0.44 7.14,-0.54 10.39,-0.29 z"
         id="path13"
         style="display:inline;fill:#ffffff;fill-opacity:1"
         inkscape:label="center" />
    </g>
  </g>
</svg>
