<?xml version="1.0" encoding="UTF-8" standalone="no"?>
<!-- Created with Vectornator (http://vectornator.io/) -->

<svg
   height="100%"
   stroke-miterlimit="10"
   style="fill-rule:nonzero;clip-rule:evenodd;stroke-linecap:round;stroke-linejoin:round;"
   version="1.1"
   viewBox="0 0 1024 1024"
   width="100%"
   xml:space="preserve"
   id="svg16"
   sodipodi:docname="SEVEN_Logo_white.svg"
   inkscape:version="1.4.3 (0d15f750, 2025-12-25)"
   xmlns:inkscape="http://www.inkscape.org/namespaces/inkscape"
   xmlns:sodipodi="http://sodipodi.sourceforge.net/DTD/sodipodi-0.dtd"
   xmlns="http://www.w3.org/2000/svg"
   xmlns:svg="http://www.w3.org/2000/svg"><sodipodi:namedview
   id="namedview16"
   pagecolor="#ffffff"
   bordercolor="#000000"
   borderopacity="0.25"
   inkscape:showpageshadow="2"
   inkscape:pageopacity="0.0"
   inkscape:pagecheckerboard="0"
   inkscape:deskcolor="#d1d1d1"
   inkscape:zoom="0.41"
   inkscape:cx="508.53659"
   inkscape:cy="517.07317"
   inkscape:window-width="1293"
   inkscape:window-height="643"
   inkscape:window-x="0"
   inkscape:window-y="25"
   inkscape:window-maximized="0"
   inkscape:current-layer="svg16" />
<defs
   id="defs1" />
<clipPath
   id="ArtboardFrame">
<rect
   height="1024"
   width="1024"
   x="0"
   y="0"
   id="rect1" />
</clipPath>
<g
   clip-path="url(#ArtboardFrame)"
   id="Ebene-1"
   inkscape:label="SEVEN Logo"
   style="display:inline;fill:#ffffff;fill-opacity:1">
<path
   d="m 943.372,876.991 c 0,-61.271 0,-61.271 0,-122.541 22.661,0 22.661,0 45.323,0 2.291,71.028 1.678,142.122 1.678,213.187 -15.667,0 -32.582,6.128 -47.001,0 -18.142,-7.71 -22.336,-32.486 -33.573,-48.681 -14.425,-20.789 -28.937,-41.519 -43.645,-62.109 -7.413,-10.379 -8.393,-11.75 -10.071,-11.75 12.918,38.754 1.678,81.689 1.678,122.54 -23.501,0 -23.501,0 -47.001,0 -0.735,-70.508 -1.009,-141.036 -3.358,-211.508 11.141,-1.114 44.559,-5.018 50.359,-1.679 11.164,6.428 14.416,21.355 21.823,31.894 21.241,30.228 42.48,60.46 63.788,90.647 z"
   fill="#ebac06"
   fill-rule="nonzero"
   opacity="1"
   stroke="none"
   id="path3"
   inkscape:label="N"
   style="clip-rule:evenodd;fill-rule:nonzero;stroke-linecap:round;stroke-linejoin:round;fill:#ffffff;fill-opacity:1" /><path
   d="m 632.824,754.45 c 63.789,0 63.789,0 127.577,0 0.839,22.662 0.839,22.662 1.678,45.323 -40.287,0 -40.287,0 -80.574,0 0,20.144 0,20.144 0,40.288 h 32.843 37.659 c 0,20.143 0,20.143 0,40.287 -24.005,1.715 -48.114,1.678 -72.181,1.678 0.839,20.983 0.839,20.983 1.679,41.966 27.423,0 54.966,-1.05 82.253,1.679 0,20.983 0,20.983 0,41.966 -65.467,0 -65.467,0 -130.934,0 0,-106.593 0,-106.593 0,-213.187 z"
   fill="#ebac09"
   fill-rule="nonzero"
   opacity="1"
   stroke="none"
   id="path6"
   inkscape:label="E"
   style="clip-rule:evenodd;fill-rule:nonzero;stroke-linecap:round;stroke-linejoin:round;fill:#ffffff;fill-opacity:1" /><path
   d="m 402.852,756.129 c 17.346,0 36.361,-7.426 52.037,0 9.767,4.626 8.259,19.989 11.751,30.215 12.755,37.355 23.043,75.437 36.93,112.469 18.714,-37.428 29.914,-86.422 43.644,-125.898 1.98,-5.692 0.947,-15.038 6.715,-16.786 15.529,-4.706 32.453,0 48.68,0 -23.619,70.857 -51.207,140.313 -73.86,211.508 -16.786,0 -35.504,7.818 -50.359,0 -10.666,-5.614 -9.197,-22.287 -13.429,-33.573 -15.913,-42.434 -32.066,-84.788 -47.002,-127.576 -5.775,-16.546 -10.071,-33.573 -15.107,-50.359 z"
   fill="#ebad09"
   fill-rule="nonzero"
   opacity="1"
   stroke="none"
   id="path7"
   inkscape:label="V"
   style="clip-rule:evenodd;fill-rule:nonzero;stroke-linecap:round;stroke-linejoin:round;fill:#ffffff;fill-opacity:1" /><path
   d="m 236.667,756.129 c 67.145,0 67.145,0 134.291,0 0,22.661 0,22.661 0,45.323 -41.127,0 -41.127,0 -82.253,0 2.209,13.258 1.678,26.847 1.678,40.287 34.412,0 34.412,0 68.824,0 0,19.305 0,19.305 0,38.609 -23.462,1.466 -46.995,1.678 -70.502,1.678 0,21.823 0,21.823 0,43.645 42.805,0 42.805,0 85.61,0 0,21.822 0,21.822 0,43.644 -67.985,0 -67.985,0 -135.969,0 -0.84,-106.593 -0.84,-106.593 -1.679,-213.186 z"
   fill="#ebaa02"
   fill-rule="nonzero"
   opacity="1"
   stroke="none"
   id="path5"
   inkscape:label="E"
   style="clip-rule:evenodd;fill-rule:nonzero;stroke-linecap:round;stroke-linejoin:round;fill:#ffffff;fill-opacity:1" /><path
   d="m 100.698,747.736 c 36.851,-3.095 64.28,5.528 92.324,33.572 1.583,1.583 1.365,4.941 0,6.715 -2.103,2.734 -32.716,29.032 -35.251,30.215 -7.261,3.389 -20.422,-20.094 -30.215,-21.822 -9.974,-1.76 -28.7484,-1.243 -30.2157,13.429 -2.6935,26.936 40.9207,29.907 57.0737,36.93 28.67,12.466 48.353,35.365 43.644,67.145 -13.566,91.57 -114.7723,67.018 -164.5057,23.501 5.3083,-10.616 15.9108,-17.764 25.1795,-25.179 19.444,-15.555 23.9198,3.532 43.6442,11.75 13.15,5.479 41.852,6.294 43.645,-13.429 2.469,-27.162 -42.548,-31.478 -58.7525,-38.608 -36.5252,-16.071 -56.8304,-55.052 -35.2513,-92.325 2.9802,-5.148 23.4979,-27.651 48.6808,-31.894 z"
   fill="#ebac09"
   fill-rule="nonzero"
   opacity="1"
   stroke="none"
   id="path4"
   inkscape:label="S"
   style="clip-rule:evenodd;fill-rule:nonzero;stroke-linecap:round;stroke-linejoin:round;fill:#ffffff;fill-opacity:1" /><path
   d="m 659.975,52.4048 c 102.434,-9.5904 205.782,-1.9687 308.645,0 7.753,0.1484 20.47,17.3916 21.286,24.3267 3.228,27.4385 -25.258,66.0105 -36.49,86.6635 -14.417,26.509 -29.486,52.658 -44.092,79.062 -62.63,113.215 -138.995,225.799 -194.614,342.094 -6.573,13.743 13.045,14.642 4.561,27.368 -19.808,29.712 -59.1,70.915 -86.663,91.225 -3.332,2.455 -53.146,-19.078 -54.736,-34.97 -1.817,-18.171 67.426,-99.421 83.623,-110.99 11.744,-8.389 7.583,3.837 15.205,-10.643 46.432,-88.221 85.936,-180.83 129.235,-270.635 14.569,-30.216 30.117,-59.953 45.613,-89.704 1.57,-3.016 4.08,-5.757 4.561,-9.123 1.59,-11.133 -9.969,-31.725 -22.806,-31.929 -62.332,-0.989 -124.741,1.399 -187.012,-1.52 -24.841,-1.165 -6.43,-89.342 13.684,-91.2252 z"
   fill="#ecac06"
   fill-rule="nonzero"
   opacity="1"
   stroke="none"
   id="path1"
   inkscape:label="7"
   style="clip-rule:evenodd;fill-rule:nonzero;stroke-linecap:round;stroke-linejoin:round;fill:#ffffff;fill-opacity:1" /><path
   d="m 924.528,688.357 c -2.767,1.682 0,0 -4.561,2.623 31.948,-83.864 40.5,-167.404 25.847,-256.95 -4.638,-28.34 -12.109,-51.529 -21.286,-79.062 -11.701,-35.102 -24.34,-39.789 -1.521,-72.98 3.737,-5.436 12.376,17.149 16.725,25.847 15.265,30.53 26.697,64.217 34.97,97.307 15.585,62.341 22.729,144.021 3.04,206.777 -9.963,31.758 -18.715,49.645 -53.214,76.438 z"
   fill="#eaae0c"
   fill-rule="nonzero"
   opacity="1"
   stroke="none"
   id="path10"
   inkscape:label="right 1st"
   style="clip-rule:evenodd;fill-rule:nonzero;stroke-linecap:round;stroke-linejoin:round;fill:#ffffff;fill-opacity:1" /><path
   d="m 871.313,367.131 c 7.905,0 21.661,37.822 24.327,45.613 4.101,11.988 7.971,24.105 10.643,36.49 14.125,65.491 -10.643,199.175 -10.643,199.175 0,0 -28.974,61.801 -45.613,56.255 37.657,-75.314 55.064,-154.085 48.654,-238.706 -2.557,-33.754 -27.368,-66.93 -27.368,-98.827 z"
   fill="#e6b118"
   fill-rule="nonzero"
   opacity="1"
   stroke="none"
   id="path14"
   inkscape:label="right 2nd"
   style="clip-rule:evenodd;fill-rule:nonzero;stroke-linecap:round;stroke-linejoin:round;fill:#ffffff;fill-opacity:1" /><path
   d="m 833.303,435.55 c 10.062,0 15.014,35.542 16.724,44.092 5.655,28.276 5.077,42.424 3.041,77.542 -2.39,41.224 -28.35,140.33 -76.021,159.643 -1.748,0.76 0,0 -3.041,1.521 45.357,-68.035 74.09,-137.444 69.94,-220.461 -1.091,-21.81 -10.643,-41.105 -10.643,-62.337 z"
   fill="#e6b019"
   fill-rule="nonzero"
   opacity="1"
   stroke="none"
   id="path15"
   inkscape:label="right 3rd"
   style="clip-rule:evenodd;fill-rule:nonzero;stroke-linecap:round;stroke-linejoin:round;fill:#ffffff;fill-opacity:1" /><path
   d="m 790.731,516.132 c 1.52,0 1.52,0 3.041,0 0,53.385 -32.097,142.768 -32.097,142.768 0,0 -8.54,15.268 -13.516,22.958 -5.047,7.801 -31.658,50.309 -47.133,42.572 53.313,-62.198 85.586,-125.909 89.705,-208.298 z"
   fill="#e5b825"
   fill-rule="nonzero"
   opacity="1"
   stroke="none"
   id="path16"
   inkscape:label="right 4th"
   style="clip-rule:evenodd;fill-rule:nonzero;stroke-linecap:round;stroke-linejoin:round;fill:#ffffff;fill-opacity:1" /><path
   d="m 476,368.656 c -80.989,26.051 -128.355,71.555 -133.781,135.313 -3.044,35.761 3.655,68.694 17.781,96.219 32.416,63.16 103.854,97.819 185.938,72.562 -5.317,-42.532 56.717,-93.93 83.624,-126.219 5.526,-6.63 10.454,-13.814 16.719,-19.75 3.471,-3.288 10.152,-3.267 12.188,-7.593 5.103,-10.845 -6.533,-46.44 -9.125,-53.219 C 620.976,391.776 545.939,368.656 476,368.656 Z m 21.875,116.563 c 46.752,1.217 66.719,57.236 14.625,79.562 -27.974,11.989 -61.367,-16.6 -56.25,-45.593 3.565,-20.203 12.7,-30.984 31.906,-33.469 3.342,-0.433 6.602,-0.581 9.719,-0.5 z"
   fill="#ecaa03"
   fill-rule="nonzero"
   opacity="1"
   stroke="none"
   id="path13"
   inkscape:label="center"
   style="clip-rule:evenodd;fill-rule:nonzero;stroke-linecap:round;stroke-linejoin:round;fill:#ffffff;fill-opacity:1" /><path
   d="m 599.158,327.6 c -52.317,-10.463 -91.07,-24.03 -145.96,-10.642 -112.879,27.531 -171.737,134.045 -164.205,243.266 3.344,48.495 32.817,79.634 57.776,117.073 -35.962,-17.981 -59.404,-69.242 -68.419,-106.43 -30.814,-127.108 48.326,-241.918 171.807,-270.634 51.832,-12.054 101.454,-0.604 147.481,24.327 0.996,0.539 1.014,2.027 1.52,3.04 z"
   fill="#e9b319"
   fill-rule="nonzero"
   opacity="1"
   stroke="none"
   id="path12"
   inkscape:label="left 5th"
   style="clip-rule:evenodd;fill-rule:nonzero;stroke-linecap:round;stroke-linejoin:round;fill:#ffffff;fill-opacity:1" /><path
   d="m 623.485,272.865 c -82.014,-16.402 -129.739,-29.733 -214.379,-1.52 -131.303,43.768 -205.393,197.121 -171.807,328.41 10.012,39.138 32.427,71.618 56.255,103.389 -11.879,5.939 -37.949,-37.754 -42.571,-45.613 -22.303,-37.915 -35.413,-82.04 -36.49,-126.195 -4.064,-166.609 124.816,-306.762 298.002,-293.44 35.631,2.741 82.276,13.434 110.99,34.969 z"
   fill="#e9b115"
   fill-rule="nonzero"
   opacity="1"
   stroke="none"
   id="path11"
   inkscape:label="left 4th"
   style="clip-rule:evenodd;fill-rule:nonzero;stroke-linecap:round;stroke-linejoin:round;fill:#ffffff;fill-opacity:1" /><path
   d="m 655.414,222.692 c -59.564,-20.475 -108.44,-30.434 -171.807,-27.368 -151.685,7.34 -306.52,147.299 -310.166,304.084 -1.478,63.547 4.783,119.036 33.449,176.368 1.89,3.78 23.811,34.482 21.286,39.531 C 91.765,539.921 156.537,306.303 351.33,212.049 c 70.506,-34.116 153.844,-41.406 229.583,-19.766 13.869,3.963 27.546,8.619 41.052,13.684 11.672,4.377 27.874,5.575 33.449,16.725 z"
   fill="#eab114"
   fill-rule="nonzero"
   opacity="1"
   stroke="none"
   id="path9"
   inkscape:label="left 3rd"
   style="clip-rule:evenodd;fill-rule:nonzero;stroke-linecap:round;stroke-linejoin:round;fill:#ffffff;fill-opacity:1" /><path
   d="m 594.597,140.589 c -61.286,-5.329 -121.025,-5.854 -180.93,9.123 -160.725,40.181 -288.665,187.509 -296.481,354.257 -2.37,50.559 3.827,98.145 19.765,145.96 3.245,9.735 6.882,19.34 10.643,28.888 3.114,7.904 11.402,16.728 7.602,24.327 C 120.488,664.097 109.46,601.748 103.502,551.102 82.1141,369.304 202.531,192.563 377.177,142.109 c 58.225,-16.82 116.32,-21.401 176.369,-12.163 13.972,2.15 31.055,0.647 41.051,10.643 z"
   fill="#eab114"
   fill-rule="nonzero"
   opacity="1"
   stroke="none"
   id="path8"
   inkscape:label="left 2nd"
   style="clip-rule:evenodd;fill-rule:nonzero;stroke-linecap:round;stroke-linejoin:round;fill:#ffffff;fill-opacity:1" /><path
   d="M 618.924,61.5273 C 613.097,82.8905 616.19,72.77 609.801,91.9357 551.748,82.5723 496.91,79.2879 437.994,87.3744 251.24,113.007 95.1626,271.847 67.012,456.836 53.1282,548.072 77.6337,620.967 101.982,706.185 78.6224,696.841 52.1368,665.844 40.9326,611.919 0.211551,381.092 138.444,136.613 363.494,70.6498 448.561,45.7163 532.175,46.4405 618.924,61.5273 Z"
   fill="#ebae0c"
   fill-rule="nonzero"
   opacity="1"
   stroke="none"
   id="path2"
   inkscape:label="left 1st"
   style="clip-rule:evenodd;fill-rule:nonzero;stroke-linecap:round;stroke-linejoin:round;fill:#ffffff;fill-opacity:1" />
</g>
</svg>
