<svg xmlns="http://www.w3.org/2000/svg" style="display: none;">
    <defs>
        <!-- Instagram Icon -->
        <symbol id="icon-instagram" viewBox="0 0 24 24">
            <path d="M7.75 2h8.5A5.75 5.75 0 0 1 22 7.75v8.5A5.75 5.75 0 0 1 16.25 22h-8.5A5.75 5.75 0 0 1 2 16.25v-8.5A5.75 5.75 0 0 1 7.75 2Zm0 1.5A4.25 4.25 0 0 0 3.5 7.75v8.5A4.25 4.25 0 0 0 7.75 20.5h8.5a4.25 4.25 0 0 0 4.25-4.25v-8.5A4.25 4.25 0 0 0 16.25 3.5h-8.5ZM12 7a5 5 0 1 1 0 10 5 5 0 0 1 0-10Zm0 1.5a3.5 3.5 0 1 0 0 7 3.5 3.5 0 0 0 0-7Zm5.25-.9a1.15 1.15 0 1 1 0 2.3 1.15 1.15 0 0 1 0-2.3Z"/>
        </symbol>
    </defs>
</svg>